# xmcd
#
# Track frame offsets: 
#        150
#        14800
#        30273
#        42267
#
# Disc length: 780 seconds
#
# Revision: 0
# Processed by: cddbd v1.5.2PL0 Copyright (c) Steve Scherf et al.
# Submitted via: ExactAudioCopy v1.3
#
DISCID=28030a04
DTITLE=Robyn Shane - Robyn Shane
DYEAR=2011
DGENRE=Country
TTITLE0=Name and a Notch
TTITLE1=Lover Boy to Lucifer
TTITLE2=Rowdy With Jack
TTITLE3=Key To My Heart
EXTD=
EXTT0=
EXTT1=
EXTT2=
EXTT3=
PLAYORDER=
